<svg width="36" height="36" viewBox="0 0 36 36" fill="none" xmlns="http://www.w3.org/2000/svg">
<path d="M28.5 18C28.5 18.8284 27.8284 19.5 27 19.5H21.5C20.3954 19.5 19.5 20.3954 19.5 21.5V27C19.5 27.8284 18.8284 28.5 18 28.5C17.1716 28.5 16.5 27.8284 16.5 27V21.5C16.5 20.3954 15.6046 19.5 14.5 19.5H9C8.17157 19.5 7.5 18.8284 7.5 18C7.5 17.1716 8.17157 16.5 9 16.5H14.5C15.6046 16.5 16.5 15.6046 16.5 14.5V9C16.5 8.17157 17.1716 7.5 18 7.5C18.8284 7.5 19.5 8.17157 19.5 9V14.5C19.5 15.6046 20.3954 16.5 21.5 16.5H27C27.8284 16.5 28.5 17.1716 28.5 18Z" fill="#787CD1"/>
</svg>
