<svg width="40" height="41" viewBox="0 0 40 41" fill="none" xmlns="http://www.w3.org/2000/svg">
<path d="M25.334 16.8001C26.8067 16.8001 28.0006 15.7255 28.0006 14.4C28.0006 13.0745 26.8067 12 25.334 12C23.8612 12 22.6673 13.0745 22.6673 14.4C22.6673 15.7255 23.8612 16.8001 25.334 16.8001Z" stroke="#787CD1" stroke-width="2" stroke-linecap="round" stroke-linejoin="round"/>
<path d="M14.667 22.4005C16.1398 22.4005 17.3337 21.326 17.3337 20.0005C17.3337 18.675 16.1398 17.6005 14.667 17.6005C13.1942 17.6005 12.0003 18.675 12.0003 20.0005C12.0003 21.326 13.1942 22.4005 14.667 22.4005Z" stroke="#787CD1" stroke-width="2" stroke-linecap="round" stroke-linejoin="round"/>
<path d="M25.334 28.0012C26.8067 28.0012 28.0006 26.9267 28.0006 25.6012C28.0006 24.2757 26.8067 23.2012 25.334 23.2012C23.8612 23.2012 22.6673 24.2757 22.6673 25.6012C22.6673 26.9267 23.8612 28.0012 25.334 28.0012Z" stroke="#787CD1" stroke-width="2" stroke-linecap="round" stroke-linejoin="round"/>
<path d="M16.9691 21.208L23.0402 24.392" stroke="#787CD1" stroke-width="2" stroke-linecap="round" stroke-linejoin="round"/>
<path d="M23.0313 15.6074L16.9691 18.7915" stroke="#787CD1" stroke-width="2" stroke-linecap="round" stroke-linejoin="round"/>
</svg>
