<svg width="40" height="40" viewBox="0 0 40 40" fill="none" xmlns="http://www.w3.org/2000/svg">
<rect width="40" height="40" rx="8" fill="white" fill-opacity="0.5"/>
<mask id="path-2-inside-1_317_219" fill="white">
<path d="M30.9119 16.5099C30.8115 16.2007 30.6268 15.9251 30.3784 15.7136C30.13 15.5021 29.8274 15.3629 29.5043 15.3116L24.4332 14.4934L22.0825 9.95848C21.9327 9.66978 21.7058 9.4276 21.4265 9.25853C21.1472 9.08945 20.8265 9 20.4994 9C20.1723 9 19.8515 9.08945 19.5722 9.25853C19.293 9.4276 19.066 9.66978 18.9163 9.95848L16.5655 14.4934L11.4946 15.3116C11.1717 15.3637 10.8696 15.5032 10.6213 15.7146C10.3731 15.926 10.1882 16.2012 10.0872 16.51C9.98607 16.8189 9.97263 17.1494 10.0483 17.4653C10.124 17.7812 10.2859 18.0703 10.5161 18.3009L14.1343 21.9217L13.3511 26.9623C13.3009 27.2833 13.3408 27.6119 13.4665 27.9119C13.5922 28.2119 13.7988 28.4717 14.0635 28.6626C14.3283 28.8536 14.641 28.9684 14.9672 28.9943C15.2935 29.0203 15.6206 28.9565 15.9126 28.8098L20.4994 26.5127L25.0862 28.8098C25.3783 28.9562 25.7054 29.0198 26.0315 28.9937C26.3576 28.9676 26.6701 28.8528 26.9348 28.6619C27.1995 28.471 27.406 28.2113 27.5318 27.9115C27.6576 27.6117 27.6977 27.2833 27.6477 26.9623L26.8646 21.9217L30.4827 18.3009C30.7137 18.0707 30.8761 17.7816 30.9519 17.4655C31.0276 17.1494 31.0138 16.8187 30.9119 16.5099ZM29.4887 17.3221L25.3731 21.4408L26.264 27.1743C26.2751 27.2429 26.2668 27.3133 26.24 27.3776C26.2132 27.4418 26.1691 27.4975 26.1124 27.5383C26.0557 27.5792 25.9888 27.6037 25.9189 27.6091C25.8491 27.6145 25.7791 27.6006 25.7168 27.569L20.4994 24.956L15.2819 27.5691C15.2196 27.6007 15.1496 27.6146 15.0797 27.6092C15.0099 27.6038 14.943 27.5793 14.8863 27.5384C14.8296 27.4976 14.7855 27.4419 14.7587 27.3776C14.7319 27.3134 14.7236 27.243 14.7347 27.1744L15.6256 21.4408L11.5101 17.3221C11.461 17.2728 11.4264 17.211 11.4103 17.1435C11.3942 17.0761 11.397 17.0055 11.4186 16.9395C11.4402 16.8735 11.4797 16.8148 11.5327 16.7696C11.5857 16.7244 11.6502 16.6946 11.7191 16.6834L17.4872 15.7528L20.1611 10.5945C20.1931 10.5328 20.2416 10.481 20.3013 10.4449C20.3609 10.4087 20.4295 10.3896 20.4994 10.3896C20.5693 10.3896 20.6378 10.4087 20.6975 10.4449C20.7571 10.481 20.8056 10.5328 20.8376 10.5945L23.5116 15.7528L29.2796 16.6834C29.3485 16.6946 29.4131 16.7244 29.4661 16.7696C29.5191 16.8148 29.5585 16.8735 29.5801 16.9395C29.6017 17.0055 29.6046 17.0761 29.5885 17.1435C29.5723 17.211 29.5378 17.2728 29.4886 17.3221L29.4887 17.3221Z"/>
</mask>
<path d="M29.5043 15.3116L28.23 23.2094L28.2393 23.2109L28.2486 23.2124L29.5043 15.3116ZM24.4332 14.4934L17.3308 18.1751L19.1838 21.75L23.159 22.3913L24.4332 14.4934ZM22.0825 9.95848L29.1849 6.27678L29.1841 6.27513L22.0825 9.95848ZM20.4994 9V17V9ZM18.9163 9.95848L11.8147 6.27513L11.8138 6.27678L18.9163 9.95848ZM16.5655 14.4934L17.8397 22.3913L21.8149 21.75L23.668 18.1751L16.5655 14.4934ZM11.4946 15.3116L10.2203 7.41369L10.2185 7.41399L11.4946 15.3116ZM10.5161 18.3009L4.85566 23.9541L4.85715 23.9556L10.5161 18.3009ZM14.1343 21.9217L22.0394 23.1499L22.6627 19.1386L19.7933 16.267L14.1343 21.9217ZM13.3511 26.9623L21.2549 28.1994L21.2563 28.1905L13.3511 26.9623ZM15.9126 28.8098L12.3302 21.6567L12.3225 21.6606L15.9126 28.8098ZM20.4994 26.5127L24.0817 19.3596L20.4993 17.5655L16.917 19.3596L20.4994 26.5127ZM25.0862 28.8098L28.6702 21.6575L28.6686 21.6567L25.0862 28.8098ZM27.6477 26.9623L19.7426 28.1905L19.7429 28.1926L27.6477 26.9623ZM26.8646 21.9217L21.2056 16.267L18.3362 19.1386L18.9594 23.1499L26.8646 21.9217ZM30.4827 18.3009L24.8367 12.6333L24.8302 12.6397L24.8237 12.6462L30.4827 18.3009ZM29.4887 17.3221L35.1476 22.9769L40.8209 17.2994L35.1249 11.6447L29.4887 17.3221ZM25.3731 21.4408L19.7141 15.786L16.8446 18.6577L17.468 22.6692L25.3731 21.4408ZM26.264 27.1743L18.3589 28.4027L18.3622 28.4236L18.3655 28.4446L26.264 27.1743ZM25.7168 27.569L29.3368 20.4349L29.318 20.4254L29.2992 20.4159L25.7168 27.569ZM20.4994 24.956L24.0818 17.8029L20.4993 16.0088L16.9169 17.803L20.4994 24.956ZM15.2819 27.5691L11.6995 20.416L11.6806 20.4255L11.6619 20.435L15.2819 27.5691ZM14.7347 27.1744L22.6331 28.4447L22.6365 28.4237L22.6398 28.4028L14.7347 27.1744ZM15.6256 21.4408L23.5307 22.6692L24.1541 18.6578L21.2847 15.7861L15.6256 21.4408ZM11.5101 17.3221L5.84489 22.9706L5.85107 22.9768L11.5101 17.3221ZM11.7191 16.6834L10.4449 8.78549L10.4361 8.78693L11.7191 16.6834ZM17.4872 15.7528L18.7614 23.6507L22.7365 23.0093L24.5896 19.4345L17.4872 15.7528ZM20.1611 10.5945L27.2636 14.2762L27.2641 14.2752L20.1611 10.5945ZM20.4994 10.3896V2.3896V10.3896ZM20.8376 10.5945L13.7346 14.2752L13.7352 14.2762L20.8376 10.5945ZM23.5116 15.7528L16.4091 19.4345L18.2622 23.0093L22.2374 23.6507L23.5116 15.7528ZM29.2796 16.6834L30.5626 8.78693L30.5538 8.7855L29.2796 16.6834ZM29.4886 17.3221L23.8234 11.6736L18.1627 17.3511L23.8524 22.9995L29.4886 17.3221ZM38.5209 14.0397C37.9617 12.3172 36.9358 10.7897 35.5644 9.62214L25.1924 21.805C24.3179 21.0605 23.6612 20.0842 23.3028 18.9802L38.5209 14.0397ZM35.5644 9.62214C34.1935 8.45501 32.5301 7.69204 30.7599 7.41072L28.2486 23.2124C27.1248 23.0338 26.0664 22.5491 25.1924 21.805L35.5644 9.62214ZM30.7785 7.41369L25.7074 6.59555L23.159 22.3913L28.23 23.2094L30.7785 7.41369ZM31.5357 10.8117L29.1849 6.27678L14.98 13.6402L17.3308 18.1751L31.5357 10.8117ZM29.1841 6.27513C28.3547 4.67601 27.1018 3.34262 25.5699 2.41509L17.2832 16.102C16.3097 15.5126 15.5108 14.6636 14.9808 13.6418L29.1841 6.27513ZM25.5699 2.41509C24.0384 1.48786 22.2842 1 20.4994 1V17C19.3687 17 18.2561 16.691 17.2832 16.102L25.5699 2.41509ZM20.4994 1C18.7145 1 16.9604 1.48786 15.4289 2.41509L23.7156 16.102C22.7426 16.691 21.63 17 20.4994 17V1ZM15.4289 2.41509C13.8969 3.34262 12.6441 4.67601 11.8147 6.27513L26.0179 13.6418C25.488 14.6636 24.689 15.5126 23.7156 16.102L15.4289 2.41509ZM11.8138 6.27678L9.46303 10.8117L23.668 18.1751L26.0187 13.6402L11.8138 6.27678ZM15.2913 6.59556L10.2203 7.41369L12.7688 23.2094L17.8397 22.3913L15.2913 6.59556ZM10.2185 7.41399C8.45587 7.69879 6.80017 8.46093 5.43469 9.6237L15.808 21.8055C14.939 22.5454 13.8876 23.0287 12.7707 23.2091L10.2185 7.41399ZM5.43469 9.6237C4.06872 10.7869 3.0452 12.3071 2.48406 14.0215L17.6903 18.9986C17.3313 20.0954 16.6774 21.0651 15.808 21.8055L5.43469 9.6237ZM2.48406 14.0215C1.92278 15.7363 1.84788 17.5734 2.26841 19.3289L17.8282 15.6016C18.0974 16.7253 18.0494 17.9014 17.6903 18.9986L2.48406 14.0215ZM2.26841 19.3289C2.68887 21.0841 3.58662 22.6834 4.85566 23.9541L16.1766 12.6477C16.9851 13.4571 17.5591 14.4782 17.8282 15.6016L2.26841 19.3289ZM4.85715 23.9556L8.47527 27.5765L19.7933 16.267L16.1751 12.6462L4.85715 23.9556ZM6.22911 20.6936L5.44599 25.7341L21.2563 28.1905L22.0394 23.1499L6.22911 20.6936ZM5.44738 25.7252C5.16781 27.5112 5.39032 29.3382 6.08792 31.0033L20.8451 24.8205C21.2913 25.8856 21.434 27.0554 21.2549 28.1994L5.44738 25.7252ZM6.08792 31.0033C6.78533 32.6679 7.92828 34.1013 9.38365 35.151L18.7434 22.1743C19.6692 22.8421 20.399 23.7559 20.8451 24.8205L6.08792 31.0033ZM9.38365 35.151C10.8385 36.2003 12.5511 36.8273 14.3325 36.9691L15.602 21.0196C16.7309 21.1094 17.8181 21.5068 18.7434 22.1743L9.38365 35.151ZM14.3325 36.9691C16.1137 37.1109 17.9023 36.7627 19.5027 35.959L12.3225 21.6606C13.3389 21.1502 14.4732 20.9297 15.602 21.0196L14.3325 36.9691ZM19.495 35.9629L24.0818 33.6657L16.917 19.3596L12.3302 21.6567L19.495 35.9629ZM16.917 33.6658L21.5039 35.9629L28.6686 21.6567L24.0817 19.3596L16.917 33.6658ZM21.5023 35.9621C23.1023 36.7638 24.8897 37.1106 26.6696 36.9682L25.3933 21.0192C26.521 20.9289 27.6544 21.1485 28.6702 21.6575L21.5023 35.9621ZM26.6696 36.9682C28.4497 36.8257 30.1608 36.1989 31.6147 35.1502L22.2549 22.1735C23.1794 21.5067 24.2654 21.1094 25.3933 21.0192L26.6696 36.9682ZM31.6147 35.1502C33.069 34.1013 34.2114 32.6692 34.909 31.0061L20.1546 24.8169C20.6006 23.7535 21.3299 22.8407 22.2549 22.1735L31.6147 35.1502ZM34.909 31.0061C35.6069 29.3425 35.8304 27.5171 35.5526 25.732L19.7429 28.1926C19.565 27.0495 19.7083 25.8809 20.1546 24.8169L34.909 31.0061ZM35.5529 25.7341L34.7698 20.6936L18.9594 23.1499L19.7426 28.1905L35.5529 25.7341ZM32.5236 27.5765L36.1417 23.9556L24.8237 12.6462L21.2056 16.267L32.5236 27.5765ZM36.1288 23.9685C37.4059 22.6962 38.3094 21.0917 38.7316 19.3297L23.1721 15.6013C23.4428 14.4715 24.0216 13.4453 24.8367 12.6333L36.1288 23.9685ZM38.7316 19.3297C39.1539 17.5674 39.0765 15.723 38.5089 14.003L23.3148 19.0169C22.951 17.9144 22.9013 16.7315 23.1721 15.6013L38.7316 19.3297ZM23.8297 11.6674L19.7141 15.786L31.0321 27.0955L35.1476 22.9769L23.8297 11.6674ZM17.468 22.6692L18.3589 28.4027L34.1692 25.9459L33.2782 20.2124L17.468 22.6692ZM18.3655 28.4446C18.1402 27.0435 18.3105 25.6089 18.855 24.3016L33.625 30.4535C34.223 29.0177 34.41 27.4424 34.1625 25.9039L18.3655 28.4446ZM18.855 24.3016C19.3993 22.9948 20.2941 21.8711 21.4327 21.0499L30.7921 34.0268C32.0441 33.1238 33.0272 31.8889 33.625 30.4535L18.855 24.3016ZM21.4327 21.0499C22.5707 20.2291 23.9098 19.7408 25.3009 19.633L26.5369 35.5852C28.0678 35.4666 29.5407 34.9294 30.7921 34.0268L21.4327 21.0499ZM25.3009 19.633C26.692 19.5252 28.0884 19.8014 29.3368 20.4349L22.0967 34.7031C23.4699 35.3999 25.0063 35.7038 26.5369 35.5852L25.3009 19.633ZM29.2992 20.4159L24.0818 17.8029L16.917 32.1091L22.1344 34.7221L29.2992 20.4159ZM16.9169 17.803L11.6995 20.416L18.8644 34.7221L24.0818 32.1091L16.9169 17.803ZM11.6619 20.435C12.9102 19.8016 14.3066 19.5253 15.6977 19.6331L14.4617 35.5853C15.9925 35.7039 17.5289 35.3999 18.902 34.7032L11.6619 20.435ZM15.6977 19.6331C17.0889 19.7409 18.428 20.2291 19.566 21.05L10.2065 34.0269C11.4579 34.9294 12.9309 35.4667 14.4617 35.5853L15.6977 19.6331ZM19.566 21.05C20.7046 21.8712 21.5994 22.9948 22.1437 24.3017L7.37368 30.4536C7.97154 31.889 8.95465 33.124 10.2065 34.0269L19.566 21.05ZM22.1437 24.3017C22.6882 25.609 22.8585 27.0436 22.6331 28.4447L6.83616 25.904C6.58873 27.4424 6.77564 29.0178 7.37368 30.4536L22.1437 24.3017ZM22.6398 28.4028L23.5307 22.6692L7.7205 20.2124L6.82953 25.946L22.6398 28.4028ZM21.2847 15.7861L17.1691 11.6674L5.85107 22.9768L9.96659 27.0955L21.2847 15.7861ZM17.1753 11.6736C18.1632 12.6644 18.8631 13.9122 19.1909 15.2831L3.62963 19.004C3.9897 20.5098 4.7587 21.8812 5.84489 22.9706L17.1753 11.6736ZM19.1909 15.2831C19.5188 16.6542 19.46 18.0889 19.0218 19.4279L3.81546 14.4512C3.33408 15.922 3.2695 17.4979 3.62963 19.004L19.1909 15.2831ZM19.0218 19.4279C18.5837 20.7664 17.7855 21.9518 16.7221 22.8581L6.34326 10.6811C5.17389 11.6778 4.29671 12.9807 3.81546 14.4512L19.0218 19.4279ZM16.7221 22.8581C15.6592 23.764 14.3717 24.3573 13.0022 24.5798L10.4361 8.78693C8.9287 9.03186 7.51215 9.68479 6.34326 10.6811L16.7221 22.8581ZM12.9933 24.5812L18.7614 23.6507L16.213 7.85492L10.4449 8.7855L12.9933 24.5812ZM24.5896 19.4345L27.2636 14.2762L13.0587 6.91272L10.3847 12.071L24.5896 19.4345ZM27.2641 14.2752C26.6167 15.5246 25.6392 16.5647 24.4459 17.2875L16.1567 3.60218C14.844 4.39725 13.7696 5.54091 13.0582 6.91373L27.2641 14.2752ZM24.4459 17.2875C23.253 18.01 21.8877 18.3896 20.4994 18.3896V2.3896C18.9712 2.3896 17.4688 2.80739 16.1567 3.60218L24.4459 17.2875ZM20.4994 18.3896C19.111 18.3896 17.7457 18.01 16.5529 17.2875L24.8421 3.60218C23.5299 2.8074 22.0275 2.3896 20.4994 2.3896V18.3896ZM16.5529 17.2875C15.3595 16.5647 14.3821 15.5246 13.7346 14.2752L27.9406 6.91373C27.2292 5.54091 26.1547 4.39725 24.8421 3.60218L16.5529 17.2875ZM13.7352 14.2762L16.4091 19.4345L30.614 12.071L27.94 6.91272L13.7352 14.2762ZM22.2374 23.6507L28.0054 24.5812L30.5538 8.7855L24.7858 7.85492L22.2374 23.6507ZM27.9965 24.5798C26.627 24.3573 25.3395 23.764 24.2766 22.8581L34.6555 10.6811C33.4866 9.68479 32.07 9.03186 30.5626 8.78693L27.9965 24.5798ZM24.2766 22.8581C23.2132 21.9517 22.415 20.7664 21.9769 19.4279L37.1833 14.4512C36.702 12.9807 35.8249 11.6778 34.6555 10.6811L24.2766 22.8581ZM21.9769 19.4279C21.5388 18.089 21.4799 16.6542 21.8078 15.2831L37.3691 19.004C37.7293 17.4979 37.6646 15.922 37.1833 14.4512L21.9769 19.4279ZM21.8078 15.2831C22.1356 13.9122 22.8355 12.6644 23.8234 11.6736L35.1538 22.9706C36.24 21.8812 37.009 20.5099 37.3691 19.004L21.8078 15.2831ZM23.8524 22.9995L23.8525 22.9996L35.1249 11.6447L35.1248 11.6447L23.8524 22.9995Z" fill="white" mask="url(#path-2-inside-1_317_219)"/>
</svg>
