<svg width="40" height="40" viewBox="0 0 40 40" fill="none" xmlns="http://www.w3.org/2000/svg">
<rect width="40" height="40" rx="8" fill="white"/>
<mask id="path-2-inside-1_502_344" fill="white">
<path d="M30.9119 17.5099C30.8115 17.2007 30.6268 16.9251 30.3784 16.7136C30.13 16.5021 29.8274 16.3629 29.5043 16.3116L24.4332 15.4934L22.0825 10.9585C21.9327 10.6698 21.7058 10.4276 21.4265 10.2585C21.1472 10.0894 20.8265 10 20.4994 10C20.1723 10 19.8515 10.0894 19.5722 10.2585C19.293 10.4276 19.066 10.6698 18.9163 10.9585L16.5655 15.4934L11.4946 16.3116C11.1717 16.3637 10.8696 16.5032 10.6213 16.7146C10.3731 16.926 10.1882 17.2012 10.0872 17.51C9.98607 17.8189 9.97263 18.1494 10.0483 18.4653C10.124 18.7812 10.2859 19.0703 10.5161 19.3009L14.1343 22.9217L13.3511 27.9623C13.3009 28.2833 13.3408 28.6119 13.4665 28.9119C13.5922 29.2119 13.7988 29.4717 14.0635 29.6626C14.3283 29.8536 14.641 29.9684 14.9672 29.9943C15.2935 30.0203 15.6206 29.9565 15.9126 29.8098L20.4994 27.5127L25.0862 29.8098C25.3783 29.9562 25.7054 30.0198 26.0315 29.9937C26.3576 29.9676 26.6701 29.8528 26.9348 29.6619C27.1995 29.471 27.406 29.2113 27.5318 28.9115C27.6576 28.6117 27.6977 28.2833 27.6477 27.9623L26.8646 22.9217L30.4827 19.3009C30.7137 19.0707 30.8761 18.7816 30.9519 18.4655C31.0276 18.1494 31.0138 17.8187 30.9119 17.5099ZM29.4887 18.3221L25.3731 22.4408L26.264 28.1743C26.2751 28.2429 26.2668 28.3133 26.24 28.3776C26.2132 28.4418 26.1691 28.4975 26.1124 28.5383C26.0557 28.5792 25.9888 28.6037 25.9189 28.6091C25.8491 28.6145 25.7791 28.6006 25.7168 28.569L20.4994 25.956L15.2819 28.5691C15.2196 28.6007 15.1496 28.6146 15.0797 28.6092C15.0099 28.6038 14.943 28.5793 14.8863 28.5384C14.8296 28.4976 14.7855 28.4419 14.7587 28.3776C14.7319 28.3134 14.7236 28.243 14.7347 28.1744L15.6256 22.4408L11.5101 18.3221C11.461 18.2728 11.4264 18.211 11.4103 18.1435C11.3942 18.0761 11.397 18.0055 11.4186 17.9395C11.4402 17.8735 11.4797 17.8148 11.5327 17.7696C11.5857 17.7244 11.6502 17.6946 11.7191 17.6834L17.4872 16.7528L20.1611 11.5945C20.1931 11.5328 20.2416 11.481 20.3013 11.4449C20.3609 11.4087 20.4295 11.3896 20.4994 11.3896C20.5693 11.3896 20.6378 11.4087 20.6975 11.4449C20.7571 11.481 20.8056 11.5328 20.8376 11.5945L23.5116 16.7528L29.2796 17.6834C29.3485 17.6946 29.4131 17.7244 29.4661 17.7696C29.5191 17.8148 29.5585 17.8735 29.5801 17.9395C29.6017 18.0055 29.6046 18.0761 29.5885 18.1435C29.5723 18.211 29.5378 18.2728 29.4886 18.3221L29.4887 18.3221Z"/>
</mask>
<path d="M29.5043 16.3116L28.23 24.2094L28.2393 24.2109L28.2486 24.2124L29.5043 16.3116ZM24.4332 15.4934L17.3308 19.1751L19.1838 22.75L23.159 23.3913L24.4332 15.4934ZM22.0825 10.9585L29.1849 7.27678L29.1841 7.27513L22.0825 10.9585ZM20.4994 10V18V10ZM18.9163 10.9585L11.8147 7.27513L11.8138 7.27678L18.9163 10.9585ZM16.5655 15.4934L17.8397 23.3913L21.8149 22.75L23.668 19.1751L16.5655 15.4934ZM11.4946 16.3116L10.2203 8.41369L10.2185 8.41399L11.4946 16.3116ZM10.5161 19.3009L4.85566 24.9541L4.85715 24.9556L10.5161 19.3009ZM14.1343 22.9217L22.0394 24.1499L22.6627 20.1386L19.7933 17.267L14.1343 22.9217ZM13.3511 27.9623L21.2549 29.1994L21.2563 29.1905L13.3511 27.9623ZM15.9126 29.8098L12.3302 22.6567L12.3225 22.6606L15.9126 29.8098ZM20.4994 27.5127L24.0817 20.3596L20.4993 18.5655L16.917 20.3596L20.4994 27.5127ZM25.0862 29.8098L28.6702 22.6575L28.6686 22.6567L25.0862 29.8098ZM27.6477 27.9623L19.7426 29.1905L19.7429 29.1926L27.6477 27.9623ZM26.8646 22.9217L21.2056 17.267L18.3362 20.1386L18.9594 24.1499L26.8646 22.9217ZM30.4827 19.3009L24.8367 13.6333L24.8302 13.6397L24.8237 13.6462L30.4827 19.3009ZM29.4887 18.3221L35.1476 23.9769L40.8209 18.2994L35.1249 12.6447L29.4887 18.3221ZM25.3731 22.4408L19.7141 16.786L16.8446 19.6577L17.468 23.6692L25.3731 22.4408ZM26.264 28.1743L18.3589 29.4027L18.3622 29.4236L18.3655 29.4446L26.264 28.1743ZM25.7168 28.569L29.3368 21.4349L29.318 21.4254L29.2992 21.4159L25.7168 28.569ZM20.4994 25.956L24.0818 18.8029L20.4993 17.0088L16.9169 18.803L20.4994 25.956ZM15.2819 28.5691L11.6995 21.416L11.6806 21.4255L11.6619 21.435L15.2819 28.5691ZM14.7347 28.1744L22.6331 29.4447L22.6365 29.4237L22.6398 29.4028L14.7347 28.1744ZM15.6256 22.4408L23.5307 23.6692L24.1541 19.6578L21.2847 16.7861L15.6256 22.4408ZM11.5101 18.3221L5.84489 23.9706L5.85107 23.9768L11.5101 18.3221ZM11.7191 17.6834L10.4449 9.78549L10.4361 9.78693L11.7191 17.6834ZM17.4872 16.7528L18.7614 24.6507L22.7365 24.0093L24.5896 20.4345L17.4872 16.7528ZM20.1611 11.5945L27.2636 15.2762L27.2641 15.2752L20.1611 11.5945ZM20.4994 11.3896V3.3896V11.3896ZM20.8376 11.5945L13.7346 15.2752L13.7352 15.2762L20.8376 11.5945ZM23.5116 16.7528L16.4091 20.4345L18.2622 24.0093L22.2374 24.6507L23.5116 16.7528ZM29.2796 17.6834L30.5626 9.78693L30.5538 9.7855L29.2796 17.6834ZM29.4886 18.3221L23.8234 12.6736L18.1627 18.3511L23.8524 23.9995L29.4886 18.3221ZM38.5209 15.0397C37.9617 13.3172 36.9358 11.7897 35.5644 10.6221L25.1924 22.805C24.3179 22.0605 23.6612 21.0842 23.3028 19.9802L38.5209 15.0397ZM35.5644 10.6221C34.1935 9.45501 32.5301 8.69204 30.7599 8.41072L28.2486 24.2124C27.1248 24.0338 26.0664 23.5491 25.1924 22.805L35.5644 10.6221ZM30.7785 8.41369L25.7074 7.59555L23.159 23.3913L28.23 24.2094L30.7785 8.41369ZM31.5357 11.8117L29.1849 7.27678L14.98 14.6402L17.3308 19.1751L31.5357 11.8117ZM29.1841 7.27513C28.3547 5.67601 27.1018 4.34262 25.5699 3.41509L17.2832 17.102C16.3097 16.5126 15.5108 15.6636 14.9808 14.6418L29.1841 7.27513ZM25.5699 3.41509C24.0384 2.48786 22.2842 2 20.4994 2V18C19.3687 18 18.2561 17.691 17.2832 17.102L25.5699 3.41509ZM20.4994 2C18.7145 2 16.9604 2.48786 15.4289 3.41509L23.7156 17.102C22.7426 17.691 21.63 18 20.4994 18V2ZM15.4289 3.41509C13.8969 4.34262 12.6441 5.67601 11.8147 7.27513L26.0179 14.6418C25.488 15.6636 24.689 16.5126 23.7156 17.102L15.4289 3.41509ZM11.8138 7.27678L9.46303 11.8117L23.668 19.1751L26.0187 14.6402L11.8138 7.27678ZM15.2913 7.59556L10.2203 8.41369L12.7688 24.2094L17.8397 23.3913L15.2913 7.59556ZM10.2185 8.41399C8.45587 8.69879 6.80017 9.46093 5.43469 10.6237L15.808 22.8055C14.939 23.5454 13.8876 24.0287 12.7707 24.2091L10.2185 8.41399ZM5.43469 10.6237C4.06872 11.7869 3.0452 13.3071 2.48406 15.0215L17.6903 19.9986C17.3313 21.0954 16.6774 22.0651 15.808 22.8055L5.43469 10.6237ZM2.48406 15.0215C1.92278 16.7363 1.84788 18.5734 2.26841 20.3289L17.8282 16.6016C18.0974 17.7253 18.0494 18.9014 17.6903 19.9986L2.48406 15.0215ZM2.26841 20.3289C2.68887 22.0841 3.58662 23.6834 4.85566 24.9541L16.1766 13.6477C16.9851 14.4571 17.5591 15.4782 17.8282 16.6016L2.26841 20.3289ZM4.85715 24.9556L8.47527 28.5765L19.7933 17.267L16.1751 13.6462L4.85715 24.9556ZM6.22911 21.6936L5.44599 26.7341L21.2563 29.1905L22.0394 24.1499L6.22911 21.6936ZM5.44738 26.7252C5.16781 28.5112 5.39032 30.3382 6.08792 32.0033L20.8451 25.8205C21.2913 26.8856 21.434 28.0554 21.2549 29.1994L5.44738 26.7252ZM6.08792 32.0033C6.78533 33.6679 7.92828 35.1013 9.38365 36.151L18.7434 23.1743C19.6692 23.8421 20.399 24.7559 20.8451 25.8205L6.08792 32.0033ZM9.38365 36.151C10.8385 37.2003 12.5511 37.8273 14.3325 37.9691L15.602 22.0196C16.7309 22.1094 17.8181 22.5068 18.7434 23.1743L9.38365 36.151ZM14.3325 37.9691C16.1137 38.1109 17.9023 37.7627 19.5027 36.959L12.3225 22.6606C13.3389 22.1502 14.4732 21.9297 15.602 22.0196L14.3325 37.9691ZM19.495 36.9629L24.0818 34.6657L16.917 20.3596L12.3302 22.6567L19.495 36.9629ZM16.917 34.6658L21.5039 36.9629L28.6686 22.6567L24.0817 20.3596L16.917 34.6658ZM21.5023 36.9621C23.1023 37.7638 24.8897 38.1106 26.6696 37.9682L25.3933 22.0192C26.521 21.9289 27.6544 22.1485 28.6702 22.6575L21.5023 36.9621ZM26.6696 37.9682C28.4497 37.8257 30.1608 37.1989 31.6147 36.1502L22.2549 23.1735C23.1794 22.5067 24.2654 22.1094 25.3933 22.0192L26.6696 37.9682ZM31.6147 36.1502C33.069 35.1013 34.2114 33.6692 34.909 32.0061L20.1546 25.8169C20.6006 24.7535 21.3299 23.8407 22.2549 23.1735L31.6147 36.1502ZM34.909 32.0061C35.6069 30.3425 35.8304 28.5171 35.5526 26.732L19.7429 29.1926C19.565 28.0495 19.7083 26.8809 20.1546 25.8169L34.909 32.0061ZM35.5529 26.7341L34.7698 21.6936L18.9594 24.1499L19.7426 29.1905L35.5529 26.7341ZM32.5236 28.5765L36.1417 24.9556L24.8237 13.6462L21.2056 17.267L32.5236 28.5765ZM36.1288 24.9685C37.4059 23.6962 38.3094 22.0917 38.7316 20.3297L23.1721 16.6013C23.4428 15.4715 24.0216 14.4453 24.8367 13.6333L36.1288 24.9685ZM38.7316 20.3297C39.1539 18.5674 39.0765 16.723 38.5089 15.003L23.3148 20.0169C22.951 18.9144 22.9013 17.7315 23.1721 16.6013L38.7316 20.3297ZM23.8297 12.6674L19.7141 16.786L31.0321 28.0955L35.1476 23.9769L23.8297 12.6674ZM17.468 23.6692L18.3589 29.4027L34.1692 26.9459L33.2782 21.2124L17.468 23.6692ZM18.3655 29.4446C18.1402 28.0435 18.3105 26.6089 18.855 25.3016L33.625 31.4535C34.223 30.0177 34.41 28.4424 34.1625 26.9039L18.3655 29.4446ZM18.855 25.3016C19.3993 23.9948 20.2941 22.8711 21.4327 22.0499L30.7921 35.0268C32.0441 34.1238 33.0272 32.8889 33.625 31.4535L18.855 25.3016ZM21.4327 22.0499C22.5707 21.2291 23.9098 20.7408 25.3009 20.633L26.5369 36.5852C28.0678 36.4666 29.5407 35.9294 30.7921 35.0268L21.4327 22.0499ZM25.3009 20.633C26.692 20.5252 28.0884 20.8014 29.3368 21.4349L22.0967 35.7031C23.4699 36.3999 25.0063 36.7038 26.5369 36.5852L25.3009 20.633ZM29.2992 21.4159L24.0818 18.8029L16.917 33.1091L22.1344 35.7221L29.2992 21.4159ZM16.9169 18.803L11.6995 21.416L18.8644 35.7221L24.0818 33.1091L16.9169 18.803ZM11.6619 21.435C12.9102 20.8016 14.3066 20.5253 15.6977 20.6331L14.4617 36.5853C15.9925 36.7039 17.5289 36.3999 18.902 35.7032L11.6619 21.435ZM15.6977 20.6331C17.0889 20.7409 18.428 21.2291 19.566 22.05L10.2065 35.0269C11.4579 35.9294 12.9309 36.4667 14.4617 36.5853L15.6977 20.6331ZM19.566 22.05C20.7046 22.8712 21.5994 23.9948 22.1437 25.3017L7.37368 31.4536C7.97154 32.889 8.95465 34.124 10.2065 35.0269L19.566 22.05ZM22.1437 25.3017C22.6882 26.609 22.8585 28.0436 22.6331 29.4447L6.83616 26.904C6.58873 28.4424 6.77564 30.0178 7.37368 31.4536L22.1437 25.3017ZM22.6398 29.4028L23.5307 23.6692L7.7205 21.2124L6.82953 26.946L22.6398 29.4028ZM21.2847 16.7861L17.1691 12.6674L5.85107 23.9768L9.96659 28.0955L21.2847 16.7861ZM17.1753 12.6736C18.1632 13.6644 18.8631 14.9122 19.1909 16.2831L3.62963 20.004C3.9897 21.5098 4.7587 22.8812 5.84489 23.9706L17.1753 12.6736ZM19.1909 16.2831C19.5188 17.6542 19.46 19.0889 19.0218 20.4279L3.81546 15.4512C3.33408 16.922 3.2695 18.4979 3.62963 20.004L19.1909 16.2831ZM19.0218 20.4279C18.5837 21.7664 17.7855 22.9518 16.7221 23.8581L6.34326 11.6811C5.17389 12.6778 4.29671 13.9807 3.81546 15.4512L19.0218 20.4279ZM16.7221 23.8581C15.6592 24.764 14.3717 25.3573 13.0022 25.5798L10.4361 9.78693C8.9287 10.0319 7.51215 10.6848 6.34326 11.6811L16.7221 23.8581ZM12.9933 25.5812L18.7614 24.6507L16.213 8.85492L10.4449 9.7855L12.9933 25.5812ZM24.5896 20.4345L27.2636 15.2762L13.0587 7.91272L10.3847 13.071L24.5896 20.4345ZM27.2641 15.2752C26.6167 16.5246 25.6392 17.5647 24.4459 18.2875L16.1567 4.60218C14.844 5.39725 13.7696 6.54091 13.0582 7.91373L27.2641 15.2752ZM24.4459 18.2875C23.253 19.01 21.8877 19.3896 20.4994 19.3896V3.3896C18.9712 3.3896 17.4688 3.80739 16.1567 4.60218L24.4459 18.2875ZM20.4994 19.3896C19.111 19.3896 17.7457 19.01 16.5529 18.2875L24.8421 4.60218C23.5299 3.8074 22.0275 3.3896 20.4994 3.3896V19.3896ZM16.5529 18.2875C15.3595 17.5647 14.3821 16.5246 13.7346 15.2752L27.9406 7.91373C27.2292 6.54091 26.1547 5.39725 24.8421 4.60218L16.5529 18.2875ZM13.7352 15.2762L16.4091 20.4345L30.614 13.071L27.94 7.91272L13.7352 15.2762ZM22.2374 24.6507L28.0054 25.5812L30.5538 9.7855L24.7858 8.85492L22.2374 24.6507ZM27.9965 25.5798C26.627 25.3573 25.3395 24.764 24.2766 23.8581L34.6555 11.6811C33.4866 10.6848 32.07 10.0319 30.5626 9.78693L27.9965 25.5798ZM24.2766 23.8581C23.2132 22.9517 22.415 21.7664 21.9769 20.4279L37.1833 15.4512C36.702 13.9807 35.8249 12.6778 34.6555 11.6811L24.2766 23.8581ZM21.9769 20.4279C21.5388 19.089 21.4799 17.6542 21.8078 16.2831L37.3691 20.004C37.7293 18.4979 37.6646 16.922 37.1833 15.4512L21.9769 20.4279ZM21.8078 16.2831C22.1356 14.9122 22.8355 13.6644 23.8234 12.6736L35.1538 23.9706C36.24 22.8812 37.009 21.5099 37.3691 20.004L21.8078 16.2831ZM23.8524 23.9995L23.8525 23.9996L35.1249 12.6447L35.1248 12.6447L23.8524 23.9995Z" fill="#787CD1" mask="url(#path-2-inside-1_502_344)"/>
<path d="M17 16L20.5 11H21L24 16L30 17L30.5 18L26 23L26.5 29L20.5 27L14.5 29L15 23L11 18V17.5L17 16Z" fill="#787CD1"/>
</svg>
