<svg width="26" height="26" viewBox="0 0 26 26" fill="none" xmlns="http://www.w3.org/2000/svg">
<rect width="26" height="26" rx="3.25" fill="#E8EAF7"/>
<rect x="2.59961" y="2.59961" width="20.8" height="20.8" rx="3.25" fill="white"/>
<path d="M11.0498 6.87243V15.7867C11.0498 16.1808 11.1868 16.5587 11.4306 16.8373C11.6744 17.1159 12.005 17.2724 12.3498 17.2724H17.5498C17.8946 17.2724 18.2252 17.1159 18.469 16.8373C18.7128 16.5587 18.8498 16.1808 18.8498 15.7867V9.28078C18.8498 9.08285 18.8152 8.88692 18.748 8.7045C18.6808 8.52208 18.5824 8.35684 18.4585 8.21849L16.3038 5.81015C16.0609 5.53875 15.7347 5.38677 15.3951 5.38672H12.3498C12.005 5.38672 11.6744 5.54325 11.4306 5.82187C11.1868 6.1005 11.0498 6.4784 11.0498 6.87243V6.87243Z" stroke="#787CD1" stroke-width="0.65" stroke-linecap="round" stroke-linejoin="round"/>
<path d="M16.2502 17.272V18.7577C16.2502 19.1518 16.1132 19.5297 15.8694 19.8083C15.6256 20.0869 15.295 20.2434 14.9502 20.2434H9.7502C9.40541 20.2434 9.07475 20.0869 8.83096 19.8083C8.58716 19.5297 8.4502 19.1518 8.4502 18.7577V10.5863C8.4502 10.1923 8.58716 9.81437 8.83096 9.53574C9.07475 9.25712 9.40541 9.10059 9.7502 9.10059H11.0502" stroke="#787CD1" stroke-width="0.65" stroke-linecap="round" stroke-linejoin="round"/>
</svg>
