<svg width="17" height="19" viewBox="0 0 17 19" fill="none" xmlns="http://www.w3.org/2000/svg">
<path d="M6.0498 3.87243V12.7867C6.0498 13.1808 6.18677 13.5587 6.43057 13.8373C6.67436 14.1159 7.00502 14.2724 7.3498 14.2724H12.5498C12.8946 14.2724 13.2252 14.1159 13.469 13.8373C13.7128 13.5587 13.8498 13.1808 13.8498 12.7867V6.28078C13.8498 6.08285 13.8152 5.88692 13.748 5.7045C13.6808 5.52208 13.5824 5.35684 13.4585 5.21849L11.3038 2.81015C11.0609 2.53875 10.7347 2.38677 10.3951 2.38672H7.3498C7.00502 2.38672 6.67436 2.54325 6.43057 2.82187C6.18677 3.1005 6.0498 3.4784 6.0498 3.87243V3.87243Z" stroke="#787CD1" stroke-width="0.65" stroke-linecap="round" stroke-linejoin="round"/>
<path d="M11.2502 14.272V15.7577C11.2502 16.1518 11.1132 16.5297 10.8694 16.8083C10.6256 17.0869 10.295 17.2434 9.9502 17.2434H4.7502C4.40541 17.2434 4.07475 17.0869 3.83096 16.8083C3.58716 16.5297 3.4502 16.1518 3.4502 15.7577V7.5863C3.4502 7.19226 3.58716 6.81437 3.83096 6.53574C4.07475 6.25712 4.40541 6.10059 4.7502 6.10059H6.0502" stroke="#787CD1" stroke-width="0.65" stroke-linecap="round" stroke-linejoin="round"/>
</svg>
