<svg width="14" height="14" viewBox="0 0 14 14" fill="none" xmlns="http://www.w3.org/2000/svg">
<path d="M9.95163 1.00022H11.5795C11.9245 0.994212 12.2598 1.1131 12.5217 1.3343C12.7835 1.55551 12.9537 1.86364 13 2.2002V6.40012C12.9537 6.73668 12.7835 7.04481 12.5217 7.26601C12.2598 7.48722 11.9245 7.6061 11.5795 7.6001H9.95163M5.68391 8.80008V11.2C5.68391 11.6774 5.87661 12.1352 6.21962 12.4728C6.56263 12.8104 7.02785 13 7.51293 13L9.95163 7.6001V1.00022H3.07451C2.78044 0.996945 2.49509 1.09837 2.27101 1.28581C2.04694 1.47324 1.89925 1.73406 1.85516 2.0202L1.01381 7.4201C0.987282 7.59208 0.999069 7.76769 1.04835 7.93474C1.09763 8.1018 1.18323 8.25631 1.29922 8.38757C1.41521 8.51884 1.55881 8.62372 1.72007 8.69495C1.88134 8.76617 2.05641 8.80205 2.23316 8.80008H5.68391Z" stroke="#888888" stroke-width="1.04453" stroke-linecap="round" stroke-linejoin="round"/>
</svg>
