<svg width="20" height="20" viewBox="0 0 20 20" fill="none" xmlns="http://www.w3.org/2000/svg">
<mask id="path-1-inside-1_326_222" fill="white">
<path d="M17.937 8.25696C17.8653 8.04049 17.7335 7.84755 17.556 7.6995C17.3785 7.55144 17.1624 7.45405 16.9316 7.41809L13.3095 6.8454L11.6303 3.67094C11.5234 3.46885 11.3613 3.29932 11.1618 3.18097C10.9623 3.06261 10.7332 3 10.4995 3C10.2659 3 10.0368 3.06261 9.83731 3.18097C9.63783 3.29932 9.47573 3.46885 9.36877 3.67094L7.68964 6.8454L4.06755 7.41809C3.83695 7.45461 3.62114 7.55222 3.4438 7.70021C3.26647 7.84819 3.13445 8.04085 3.06225 8.25702C2.99005 8.4732 2.98045 8.70455 3.03451 8.92569C3.08856 9.14682 3.20418 9.3492 3.36868 9.51062L5.95305 12.0452L5.39368 15.5736C5.35778 15.7983 5.38629 16.0283 5.47606 16.2383C5.56584 16.4483 5.7134 16.6302 5.90252 16.7638C6.09165 16.8975 6.315 16.9779 6.54802 16.996C6.78104 17.0142 7.0147 16.9695 7.2233 16.8669L10.4995 15.2589L13.7759 16.8669C13.9845 16.9693 14.2181 17.0138 14.451 16.9956C14.684 16.9773 14.9072 16.8969 15.0963 16.7633C15.2853 16.6297 15.4329 16.4479 15.5227 16.2381C15.6125 16.0282 15.6412 15.7983 15.6055 15.5736L15.0461 12.0452L17.6305 9.51062C17.7955 9.34951 17.9115 9.14713 17.9656 8.92587C18.0197 8.70461 18.0098 8.4731 17.937 8.25696V8.25696ZM16.9205 8.82549L13.9808 11.7085L14.6172 15.722C14.6251 15.7701 14.6191 15.8193 14.6 15.8643C14.5809 15.9093 14.5493 15.9482 14.5089 15.9768C14.4684 16.0054 14.4206 16.0226 14.3707 16.0264C14.3208 16.0302 14.2708 16.0204 14.2263 15.9983L10.4995 14.1692L6.7728 15.9984C6.72825 16.0205 6.67827 16.0302 6.62839 16.0264C6.57851 16.0227 6.53068 16.0055 6.49021 15.9769C6.44973 15.9483 6.41819 15.9093 6.39907 15.8644C6.37995 15.8194 6.37401 15.7701 6.38189 15.7221L7.0183 11.7085L4.07865 8.82546C4.04354 8.79096 4.01887 8.74772 4.00735 8.70048C3.99582 8.65324 3.99788 8.60383 4.0133 8.55766C4.02872 8.51149 4.05691 8.47033 4.09477 8.43871C4.13263 8.40708 4.17871 8.3862 4.22796 8.37836L8.34799 7.72695L10.258 4.11612C10.2808 4.07293 10.3154 4.0367 10.358 4.0114C10.4007 3.9861 10.4496 3.97272 10.4995 3.97272C10.5495 3.97272 10.5984 3.9861 10.6411 4.0114C10.6837 4.0367 10.7183 4.07293 10.7411 4.11612L12.6511 7.72695L16.7711 8.37836C16.8204 8.3862 16.8665 8.40708 16.9043 8.43871C16.9422 8.47033 16.9704 8.51149 16.9858 8.55766C17.0012 8.60383 17.0033 8.65324 16.9918 8.70048C16.9802 8.74772 16.9556 8.79096 16.9205 8.82546L16.9205 8.82549Z"/>
</mask>
<path d="M16.9316 7.41809L15.6823 15.3199L15.6914 15.3214L15.7005 15.3228L16.9316 7.41809ZM13.3095 6.8454L6.2378 10.5859L8.10842 14.1224L12.0601 14.7472L13.3095 6.8454ZM11.6303 3.67094L18.702 -0.0696011L18.7011 -0.0712626L11.6303 3.67094ZM10.4995 3L10.4995 11L10.4995 3ZM9.36877 3.67094L2.29799 -0.0712627L2.29711 -0.0696019L9.36877 3.67094ZM7.68964 6.8454L8.93901 14.7472L12.8907 14.1224L14.7613 10.5859L7.68964 6.8454ZM4.06755 7.41809L2.81818 -0.483747L2.81636 -0.483458L4.06755 7.41809ZM3.36868 9.51062L-2.23442 15.2207L-2.23292 15.2222L3.36868 9.51062ZM5.95305 12.0452L13.8544 13.2979L14.5004 9.2227L11.5546 6.33364L5.95305 12.0452ZM5.39368 15.5736L13.2936 16.8354L13.295 16.8262L5.39368 15.5736ZM7.2233 16.8669L3.69852 9.68522L3.69092 9.68897L7.2233 16.8669ZM10.4995 15.2589L14.0242 8.07719L10.4995 6.34728L6.97477 8.07723L10.4995 15.2589ZM13.7759 16.8669L17.3022 9.68598L17.3006 9.68519L13.7759 16.8669ZM15.6055 15.5736L7.70419 16.8262L7.70453 16.8284L15.6055 15.5736ZM15.0461 12.0452L9.44455 6.33364L6.49876 9.2227L7.14482 13.2979L15.0461 12.0452ZM17.6305 9.51062L12.042 3.78626L12.0354 3.79264L12.0289 3.79903L17.6305 9.51062ZM16.9205 8.82549L22.5221 14.5371L28.3693 8.8025L22.4991 3.09143L16.9205 8.82549ZM13.9808 11.7085L8.37923 5.99694L5.43333 8.88609L6.07951 12.9614L13.9808 11.7085ZM14.6172 15.722L6.71588 16.9748L6.71927 16.9962L6.72278 17.0176L14.6172 15.722ZM14.2263 15.9983L17.7884 8.83511L17.7697 8.82583L17.751 8.81665L14.2263 15.9983ZM10.4995 14.1692L14.0243 6.98757L10.4995 5.25758L6.97471 6.9876L10.4995 14.1692ZM6.7728 15.9984L3.24796 8.81675L3.22929 8.82591L3.21068 8.83517L6.7728 15.9984ZM6.38189 15.7221L14.2763 17.0176L14.2798 16.9963L14.2832 16.9749L6.38189 15.7221ZM7.0183 11.7085L14.9196 12.9614L15.5658 8.88616L12.6199 5.997L7.0183 11.7085ZM4.07865 8.82546L-1.52923 14.5309L-1.52298 14.537L4.07865 8.82546ZM4.22796 8.37836L2.97862 0.476511L2.96993 0.477895L4.22796 8.37836ZM8.34799 7.72695L9.59733 15.6288L13.549 15.004L15.4196 11.4675L8.34799 7.72695ZM10.258 4.11612L17.3296 7.85671L17.3301 7.85569L10.258 4.11612ZM10.358 4.0114L6.27457 -2.86794L10.358 4.0114ZM10.4995 3.97272L10.4995 -4.02728L10.4995 3.97272ZM10.6411 4.0114L14.7245 -2.86794L10.6411 4.0114ZM10.7411 4.11612L3.66897 7.85569L3.66951 7.85671L10.7411 4.11612ZM12.6511 7.72695L5.57947 11.4675L7.45011 15.004L11.4018 15.6288L12.6511 7.72695ZM16.7711 8.37836L18.0292 0.47789L18.0205 0.476516L16.7711 8.37836ZM16.9205 8.82546L11.3126 3.12004L5.47811 8.85476L11.3419 14.5595L16.9205 8.82546ZM25.5312 5.74126C24.984 4.08929 23.9872 2.64649 22.6811 1.55675L12.4309 13.8422C11.4797 13.0486 10.7467 11.9917 10.3429 10.7727L25.5312 5.74126ZM22.6811 1.55675C21.3768 0.468517 19.8109 -0.229905 18.1628 -0.486607L15.7005 15.3228C14.514 15.138 13.3803 14.6344 12.4309 13.8422L22.6811 1.55675ZM18.181 -0.48375L14.5588 -1.05644L12.0601 14.7472L15.6823 15.3199L18.181 -0.48375ZM20.3811 3.10486L18.702 -0.069601L4.55867 7.41148L6.2378 10.5859L20.3811 3.10486ZM18.7011 -0.0712626C17.8952 -1.59396 16.6901 -2.84106 15.244 -3.69911L7.07957 10.061C6.03238 9.43971 5.15152 8.53165 4.55955 7.41314L18.7011 -0.0712626ZM15.244 -3.69911C13.7995 -4.55618 12.1587 -5 10.4995 -5L10.4995 11C9.30768 11 8.12511 10.6814 7.07957 10.061L15.244 -3.69911ZM10.4995 -5C8.8404 -5 7.19957 -4.55618 5.75508 -3.69911L13.9195 10.061C12.874 10.6814 11.6914 11 10.4995 11L10.4995 -5ZM5.75508 -3.69911C4.30895 -2.84106 3.10387 -1.59396 2.29799 -0.0712626L16.4395 7.41314C15.8476 8.53165 14.9667 9.43971 13.9195 10.061L5.75508 -3.69911ZM2.29711 -0.0696019L0.617985 3.10486L14.7613 10.5859L16.4404 7.41148L2.29711 -0.0696019ZM6.44027 -1.05644L2.81818 -0.483747L5.31692 15.3199L8.93901 14.7472L6.44027 -1.05644ZM2.81636 -0.483458C1.17539 -0.223614 -0.383 0.474014 -1.68194 1.55799L8.56954 13.8424C7.62528 14.6304 6.49851 15.1328 5.31875 15.3196L2.81636 -0.483458ZM-1.68194 1.55799C-2.98266 2.64345 -3.97673 4.07897 -4.52572 5.72274L10.6502 10.7913C10.2456 12.0027 9.51559 13.0529 8.56954 13.8424L-1.68194 1.55799ZM-4.52572 5.72274C-5.07529 7.36822 -5.14946 9.13662 -4.7367 10.8252L10.8057 7.02612C11.1104 8.27248 11.0554 9.57818 10.6502 10.7913L-4.52572 5.72274ZM-4.7367 10.8252C-4.32428 12.5125 -3.44844 14.0295 -2.23442 15.2207L8.97178 3.80051C9.8568 4.66895 10.5014 5.78115 10.8057 7.02612L-4.7367 10.8252ZM-2.23292 15.2222L0.351459 17.7568L11.5546 6.33364L8.97027 3.79903L-2.23292 15.2222ZM-1.94827 10.7926L-2.50765 14.321L13.295 16.8262L13.8544 13.2979L-1.94827 10.7926ZM-2.5062 14.3118C-2.78107 16.0328 -2.56092 17.7902 -1.8799 19.3831L12.832 13.0935C13.3335 14.2665 13.4966 15.5638 13.2935 16.8354L-2.5062 14.3118ZM-1.8799 19.3831C-1.19972 20.9741 -0.0948511 22.3214 1.28485 23.2966L10.5202 10.2311C11.5217 10.9389 12.3314 11.9225 12.832 13.0935L-1.8799 19.3831ZM1.28485 23.2966C2.6628 24.2706 4.26925 24.8426 5.92586 24.9718L7.17018 9.02027C8.36075 9.11315 9.52049 9.52443 10.5202 10.2311L1.28485 23.2966ZM5.92586 24.9718C7.58219 25.101 9.2517 24.7849 10.7557 24.0448L3.69092 9.68897C4.7777 9.15414 5.97989 8.92742 7.17018 9.02027L5.92586 24.9718ZM10.7481 24.0485L14.0243 22.4405L6.97477 8.07723L3.69852 9.68523L10.7481 24.0485ZM6.97485 22.4406L10.2512 24.0485L17.3006 9.68519L14.0242 8.07719L6.97485 22.4406ZM10.2496 24.0478C11.753 24.7861 13.4215 25.1009 15.0765 24.9711L13.8255 9.02007C15.0148 8.9268 16.216 9.15257 17.3022 9.68598L10.2496 24.0478ZM15.0765 24.9711C16.7319 24.8413 18.337 24.2694 19.714 23.2961L10.4786 10.2305C11.4774 9.52452 12.636 9.11336 13.8255 9.02007L15.0765 24.9711ZM19.714 23.2961C21.0926 22.3216 22.1969 20.9756 22.8773 19.3861L8.16813 13.09C8.66882 11.9203 9.47802 10.9378 10.4786 10.2305L19.714 23.2961ZM22.8773 19.3861C23.5585 17.7946 23.7797 16.0388 23.5065 14.3188L7.70453 16.8284C7.50275 15.5578 7.6666 14.2617 8.16813 13.09L22.8773 19.3861ZM23.5068 14.321L22.9475 10.7926L7.14482 13.2979L7.70419 16.8262L23.5068 14.321ZM20.6477 17.7568L23.2321 15.2222L12.0289 3.79903L9.44455 6.33364L20.6477 17.7568ZM23.2191 15.235C24.4409 14.0421 25.3225 12.5201 25.7367 10.826L10.1945 7.02576C10.5006 5.77419 11.1502 4.6569 12.042 3.78626L23.2191 15.235ZM25.7367 10.826C26.1513 9.13048 26.0746 7.35471 25.5188 5.70399L10.3553 10.8099C9.94505 9.59149 9.88817 8.27874 10.1945 7.02576L25.7367 10.826ZM11.3189 3.11389L8.37923 5.99694L19.5824 17.4201L22.5221 14.5371L11.3189 3.11389ZM6.07951 12.9614L6.71588 16.9748L22.5185 14.4692L21.8821 10.4557L6.07951 12.9614ZM6.72278 17.0176C6.48433 15.5646 6.66588 14.0798 7.2374 12.7351L21.9626 18.9935C22.5724 17.5589 22.7658 15.9755 22.5116 14.4264L6.72278 17.0176ZM7.2374 12.7351C7.80808 11.3923 8.73656 10.2602 9.89132 9.44397L19.1264 22.5097C20.3621 21.6363 21.3537 20.4262 21.9626 18.9935L7.2374 12.7351ZM9.89132 9.44397C11.0443 8.62904 12.3856 8.15409 13.765 8.04935L14.9764 24.0034C16.4555 23.8911 17.8925 23.3819 19.1264 22.5097L9.89132 9.44397ZM13.765 8.04935C15.144 7.94463 16.5349 8.21178 17.7884 8.83511L10.6641 23.1615C12.0067 23.8291 13.4976 24.1157 14.9764 24.0034L13.765 8.04935ZM17.751 8.81665L14.0243 6.98757L6.97478 21.3509L10.7015 23.1799L17.751 8.81665ZM6.97471 6.9876L3.24796 8.81675L10.2976 23.18L14.0244 21.3508L6.97471 6.9876ZM3.21068 8.83517C4.46405 8.21189 5.85494 7.94468 7.2341 8.04941L6.02268 24.0035C7.5016 24.1158 8.99245 23.8291 10.3349 23.1615L3.21068 8.83517ZM7.2341 8.04941C8.6135 8.15415 9.95479 8.6291 11.1077 9.44403L1.87267 22.5098C3.10658 23.3819 4.54353 23.8912 6.02268 24.0035L7.2341 8.04941ZM11.1077 9.44403C12.2625 10.2602 13.191 11.3924 13.7617 12.7351L-0.963536 18.9936C-0.354601 20.4263 0.636985 21.6364 1.87267 22.5098L11.1077 9.44403ZM13.7617 12.7351C14.3332 14.0799 14.5147 15.5648 14.2763 17.0176L-1.5125 14.4265C-1.76672 15.9755 -1.57331 17.5589 -0.963536 18.9936L13.7617 12.7351ZM14.2832 16.9749L14.9196 12.9614L-0.882984 10.4557L-1.51939 14.4692L14.2832 16.9749ZM12.6199 5.997L9.68027 3.11392L-1.52298 14.537L1.41667 17.4201L12.6199 5.997ZM9.68651 3.12004C10.6993 4.11548 11.4334 5.38625 11.7793 6.80414L-3.76465 10.5968C-3.39563 12.1092 -2.61219 13.4664 -1.52922 14.5309L9.68651 3.12004ZM11.7793 6.80414C12.1256 8.22338 12.0629 9.70973 11.6013 11.0917L-3.57474 6.02358C-4.06711 7.49793 -4.13399 9.08311 -3.76465 10.5968L11.7793 6.80414ZM11.6013 11.0917C11.1404 12.472 10.3075 13.673 9.2233 14.5786L-1.03376 2.29882C-2.1937 3.2677 -3.08294 4.55093 -3.57474 6.02358L11.6013 11.0917ZM9.2233 14.5786C8.14086 15.4827 6.84584 16.0623 5.48599 16.2788L2.96993 0.477895C1.51158 0.710114 0.1244 1.33143 -1.03376 2.29882L9.2233 14.5786ZM5.4773 16.2802L9.59733 15.6288L7.09865 -0.174891L2.97862 0.476516L5.4773 16.2802ZM15.4196 11.4675L17.3296 7.85671L3.18632 0.375543L1.27635 3.98637L15.4196 11.4675ZM17.3301 7.85569C16.6543 9.13383 15.6459 10.1759 14.4415 10.8907L6.27457 -2.86794C4.98499 -2.10246 3.90731 -0.987969 3.18578 0.376554L17.3301 7.85569ZM14.4415 10.8907C13.2388 11.6046 11.8756 11.9727 10.4995 11.9727L10.4995 -4.02728C9.02364 -4.02728 7.56251 -3.63244 6.27457 -2.86794L14.4415 10.8907ZM10.4995 11.9727C9.12348 11.9727 7.76027 11.6046 6.55758 10.8907L14.7245 -2.86794C13.4366 -3.63243 11.9755 -4.02728 10.4995 -4.02728L10.4995 11.9727ZM6.55758 10.8907C5.35324 10.1759 4.34482 9.13383 3.66897 7.85569L17.8133 0.376554C17.0918 -0.987969 16.0141 -2.10246 14.7245 -2.86794L6.55758 10.8907ZM3.66951 7.85671L5.57947 11.4675L19.7227 3.98637L17.8128 0.375542L3.66951 7.85671ZM11.4018 15.6288L15.5218 16.2802L18.0205 0.476516L13.9005 -0.174891L11.4018 15.6288ZM15.5131 16.2788C14.1533 16.0623 12.8582 15.4827 11.7758 14.5786L22.0329 2.29882C20.8747 1.33143 19.4875 0.710115 18.0292 0.477895L15.5131 16.2788ZM11.7758 14.5786C10.6915 13.6729 9.85869 12.472 9.39775 11.0917L24.5738 6.02358C24.0821 4.55098 23.1928 3.26774 22.0329 2.29882L11.7758 14.5786ZM9.39775 11.0917C8.93624 9.70978 8.87346 8.22343 9.21976 6.80414L24.7637 10.5968C25.1331 9.08306 25.0662 7.49788 24.5738 6.02358L9.39775 11.0917ZM9.21976 6.80414C9.56572 5.38623 10.2998 4.11546 11.3126 3.12004L22.5283 14.5309C23.6113 13.4664 24.3947 12.1092 24.7637 10.5968L9.21976 6.80414ZM11.3419 14.5595L11.3419 14.5596L22.4991 3.09143L22.499 3.0914L11.3419 14.5595Z" fill="#888888" mask="url(#path-1-inside-1_326_222)"/>
</svg>
