<svg width="14" height="14" viewBox="0 0 14 14" fill="none" xmlns="http://www.w3.org/2000/svg">
<path d="M4.04837 12.9999H2.21935C1.89596 12.9999 1.58581 12.8735 1.35714 12.6485C1.12847 12.4234 1 12.1182 1 11.7999V7.59996C1 7.2817 1.12847 6.97648 1.35714 6.75144C1.58581 6.52639 1.89596 6.39997 2.21935 6.39997H4.04837M8.31609 5.19997V2.79999C8.31609 2.3226 8.12339 1.86477 7.78038 1.5272C7.43737 1.18964 6.97215 1 6.48707 1L4.04837 6.39997V12.9999H10.9255C11.2196 13.0032 11.5049 12.9018 11.729 12.7143C11.9531 12.5269 12.1007 12.2661 12.1448 11.9799L12.9862 6.57996C13.0127 6.40798 13.0009 6.23238 12.9516 6.06532C12.9024 5.89826 12.8168 5.74375 12.7008 5.61248C12.5848 5.48121 12.4412 5.37633 12.2799 5.3051C12.1187 5.23388 11.9436 5.198 11.7668 5.19997H8.31609Z" stroke="#888888" stroke-width="1.04453" stroke-linecap="round" stroke-linejoin="round"/>
</svg>
